<svg width="1000" height="600" viewBox="0 0 1000 600" fill="none" xmlns="http://www.w3.org/2000/svg">
<rect width="1000" height="600" fill="black"/>
<path d="M638.61 600C618.919 600 598.456 586.677 598.456 572.302V362.992C598.456 362.641 598.07 362.291 597.683 362.291H578.764C578.378 362.291 577.992 362.641 577.992 362.992V530.23H497.683V362.992C497.683 362.641 497.297 362.291 496.911 362.291H478.764C478.378 362.291 477.992 362.641 477.992 362.992V530.23H397.683V306.194H477.992V320.569C487.645 311.102 506.95 306.194 530.116 306.194C553.282 306.194 565.251 311.804 574.131 323.023C586.1 309.349 603.475 306.194 628.571 306.194C656.371 306.194 677.992 319.166 677.992 337.398V543.553C677.992 543.903 678.378 544.254 678.764 544.254H877.22V600H638.61ZM737.066 530.23C710.425 530.23 696.911 521.114 696.911 502.532V334.593C696.911 315.66 710.425 306.194 737.066 306.194H837.066C863.707 306.194 877.22 315.66 877.22 334.593V446.436H777.22V473.783C777.22 474.133 777.606 474.484 777.992 474.484H796.139C796.525 474.484 796.911 474.133 796.911 473.783V460.46H877.22V502.532C877.22 521.114 863.707 530.23 837.066 530.23H737.066ZM796.911 362.992C796.911 362.641 796.525 362.291 796.139 362.291H777.992C777.606 362.291 777.22 362.641 777.22 362.992V394.196H796.911V362.992Z" fill="white"/>
<path d="M141.799 365.797C114.845 365.797 101.173 356.267 101.173 336.841V205.257H81.2511V292.857H0V88.3337C0 68.5411 13.6721 58.6448 40.6255 58.6448H141.799C168.752 58.6448 182.424 68.5411 182.424 88.3337V306.785C182.424 307.152 182.815 307.518 183.205 307.518H384.771V365.797H141.799ZM101.173 118.023C101.173 117.656 100.783 117.29 100.392 117.29H82.0323C81.6417 117.29 81.2511 117.656 81.2511 118.023V146.612H101.173V118.023ZM202.346 292.857V0H283.597V58.6448H344.145C371.099 58.6448 384.771 68.5411 384.771 88.3337V263.901C384.771 283.328 371.099 292.857 344.145 292.857H202.346ZM303.52 118.023C303.52 117.656 303.129 117.29 302.738 117.29H283.597V234.579H302.738C303.129 234.579 303.52 234.213 303.52 233.846V118.023ZM443.743 292.857C416.789 292.857 403.117 283.328 403.117 263.901V88.3337C403.117 68.5411 416.789 58.6448 443.743 58.6448H544.916C571.869 58.6448 585.541 68.5411 585.541 88.3337V263.901C585.541 283.328 571.869 292.857 544.916 292.857H443.743ZM504.29 118.023C504.29 117.656 503.9 117.29 503.509 117.29H485.15C484.759 117.29 484.368 117.656 484.368 118.023V233.846C484.368 234.213 484.759 234.579 485.15 234.579H503.509C503.9 234.579 504.29 234.213 504.29 233.846V118.023ZM644.527 292.857C617.573 292.857 603.901 283.328 603.901 263.901V58.6448H685.152V233.846C685.152 234.213 685.543 234.579 685.933 234.579H704.293C704.684 234.579 705.074 234.213 705.074 233.846V58.6448H786.325V263.901C786.325 283.328 772.653 292.857 745.7 292.857H644.527ZM858.201 292.857C831.248 292.857 817.576 283.328 817.576 263.901V131.584H797.654V73.6725H817.576V58.6448H898.827V73.6725H1000V131.584H898.827V233.846C898.827 234.213 899.217 234.579 899.608 234.579H918.358C918.749 234.579 919.14 234.213 919.14 233.846V146.612H1000V263.901C1000 283.328 986.328 292.857 959.374 292.857H858.201Z" fill="white"/>
</svg>
